<svg xmlns="http://www.w3.org/2000/svg" width="224" height="224" fill-rule="evenodd" clip-rule="evenodd" image-rendering="optimizeQuality" shape-rendering="geometricPrecision" text-rendering="geometricPrecision" viewBox="0 0 2333 2333" id="breakfast"><path fill="#5382aa" d="M1628 1749l-856 0 19 156c4,39 31,75 73,75l672 0c42,0 69,-36 73,-75l19 -156z"></path><path fill="#fcd786" d="M647 828l1106 0 0 0 42 0c40,0 60,-48 32,-76l0 0c-8,-9 -19,-14 -32,-14l-1190 0c-40,0 -60,48 -32,77 18,17 42,13 71,13 1,0 1,0 2,0 0,0 0,0 1,0z"></path><path fill="#5382aa" d="M673 698l1054 0 0-159c0-29-24-53-53-53l-948 0c-29 0-53 24-53 53l0 159zm940-86l-826 0c-27 0-27-40 0-40l826 0c27 0 27 40 0 40zM1695 1176l-990-3 63 536 864 0 63-533zm-500 466l0 0zm187-406c98 89-32 324-187 406-187 99-284-67-136-270 43-59 96-105 148-133 59-31 124-41 167-9l0 0c1 1 3 2 4 3 1 1 3 2 4 3z"></path><polygon fill="#5382aa" points="1731 868 669 868 700 1133 1699 1136"></polygon><polygon fill="#5382aa" points="985 446 1415 446 1372 353 1028 353"></polygon><path fill="#3d3d3d" fill-rule="nonzero" d="M613 828l1107 0c12,0 22,10 20,23l-124 1058c-7,60 -51,111 -113,111l-672 0c-63,0 -106,-52 -113,-111l-125 -1059 0 0c-1,-12 8,-22 20,-22zm1085 40l-1062 0 121 1037c5,39 31,75 74,75l672 0c41,0 68,-36 73,-75l122 -1037z"></path><path fill="#3d3d3d" fill-rule="nonzero" d="M1720 828c-26,0 -26,40 0,40 40,0 73,6 102,-25 51,-54 15,-145 -60,-145l-1191 0c-74,0 -113,91 -60,145 30,30 62,25 100,25 26,0 26,-40 0,-40 -29,0 -54,4 -71,-13 -29,-29 -8,-77 31,-77l1191 0c12,0 24,5 32,14l0 0c28,28 7,76 -32,76l-42 0z"></path><path fill="#3d3d3d" fill-rule="nonzero" d="M600 718c0 27 40 27 40 0l0-179c0-29 23-53 52-53l949 0c29 0 53 24 53 53l0 179c0 27 40 27 40 0l0-179c0-51-42-93-93-93l-949 0c-51 0-92 42-92 93l0 179zM1307 1256c-28-13-70-5-114 19-160 84-255 309-165 350 29 13 70 5 114-18l0 0c140-69 252-288 175-345l0 0-10-6zm-133-17c59-31 123-41 166-9l-11 16 11-16c113 82-19 327-179 412l0 0c-186 99-283-67-135-270 43-59 96-105 148-133z"></path><path fill="#3d3d3d" fill-rule="nonzero" d="M1000 1645c3 27 43 22 40-4 0-1-22-160 130-181 191-26 183-210 183-211-1-26-40-25-40 1 0 1 6 150-148 171-192 26-165 224-165 224zM717 1709c-26 0-26 40 0 40l902 0c26 0 26-40 0-40l-902 0zM651 1133c-26 0-26 40 0 40l1033 3c26 0 26-40 0-40l-1033-3zM902 458c-11 23 26 40 37 16l56-121 344 0 56 121c11 24 47 7 36-16l-61-132c-3-7-10-13-19-13l-369 0c-7 0-15 5-18 12l18 8-18-8-62 133zM753 572c-26 0-26 40 0 40l827 0c26 0 26-40 0-40l-827 0z"></path><path fill="#fcd786" d="M1307 1256c-28,-13 -70,-5 -114,19 -136,72 -225,245 -193,320 5,-60 35,-156 165,-174 131,-18 146,-128 148,-161l-6 -4z"></path><path fill="#fcd786" d="M1142 1607l0 0zm200 -286c-17,55 -61,124 -172,139 -127,18 -133,131 -131,169 28,7 65,-2 103,-22 109,-54 201,-198 200,-286z"></path></svg>