<svg xmlns="http://www.w3.org/2000/svg" width="48" height="48" data-name="Layer 1" id="caffee"><path d="M17.47 18.46a.83.83 0 0 0 .81.68h.84a.81.81 0 0 0 .82-.91 6.58 6.58 0 0 0-1.85-3.78 4.8 4.8 0 0 1-1.33-2.71.82.82 0 0 0-.82-.7h-.83a.82.82 0 0 0-.82.91 7.31 7.31 0 0 0 2.05 4.27 4.08 4.08 0 0 1 1.13 2.24Zm5.67 0a.83.83 0 0 0 .81.68h.84a.81.81 0 0 0 .82-.91 6.58 6.58 0 0 0-1.85-3.78 4.8 4.8 0 0 1-1.33-2.71.82.82 0 0 0-.82-.7h-.83A.81.81 0 0 0 20 12a7.31 7.31 0 0 0 2 4.22 4.08 4.08 0 0 1 1.14 2.24Zm8.15 2.3H12.66A1.61 1.61 0 0 0 11 22.38v9.72a4.87 4.87 0 0 0 4.9 4.9h9.72a4.87 4.87 0 0 0 4.86-4.86h.81a5.67 5.67 0 1 0 0-11.34Zm0 8.1h-.81V24h.81a2.43 2.43 0 0 1 0 4.86Z"></path></svg>