<svg xmlns="http://www.w3.org/2000/svg" data-name="Layer 3" viewBox="0 0 64 64" id="coffee-break"><path fill="#0056c0" d="M32.7,36.865A18,18,0,1,0,22.024,14Z"></path><path fill="#0068dd" d="M22.024,14l9.755,20.9A18,18,0,0,0,54.533,10.936,17.99,17.99,0,0,0,22.024,14Z"></path><circle cx="39" cy="20" r="14" fill="#f3b100"></circle><path fill="#eed055" d="M41,8A14,14,0,0,0,30.153,30.847,14,14,0,0,0,49.847,11.153,13.941,13.941,0,0,0,41,8Z"></path><polygon fill="#c0cee8" points="9 22 11 62 31 62 33 22 9 22"></polygon><path fill="#d6dfef" d="M13.21,27.994,15,62H31l1.9-38H17A3.8,3.8,0,0,0,13.21,27.994Z"></path><polygon fill="#916657" points="9 32 33 32 32 48 10 48 9 32"></polygon><polygon fill="#a37763" points="14.263 48 31.7 48 32.5 32 13.421 32 14.263 48"></polygon><rect width="28" height="4" x="7" y="18" fill="#383838"></rect><polyline fill="#212121" points="9 18 10 14 32 14 33 18"></polyline><ellipse cx="21" cy="40" fill="#795348" rx="4" ry="5"></ellipse><path fill="#fff" d="M42.793,25.207l-4.5-4.5A1,1,0,0,1,38,20V11h2v8.587l4.207,4.207Z"></path><path fill="#916657" d="M22.025,35.186a2.96,2.96,0,0,0-2.281.09l-.314.628A4.091,4.091,0,0,0,19,37.726a4.049,4.049,0,0,0,1.193,2.881l.127.127a2.4,2.4,0,0,1,.3,3.028l-.69,1.035A3.239,3.239,0,0,0,21,45a3.29,3.29,0,0,0,1.4-.332,4.371,4.371,0,0,0-.667-5.348l-.127-.127A2.063,2.063,0,0,1,21,37.726a2.086,2.086,0,0,1,.219-.928Z"></path><path fill="#4c4c4c" d="M12,20H35V18H10A2,2,0,0,0,12,20Z"></path><path fill="#fff" d="M40 9V6.05c-.332-.023-.662-.05-1-.05s-.668.027-1 .05V9zM38 31v2.95c.332.023.662.05 1 .05s.668-.027 1-.05V31zM52.95 19H50v2h2.95c.023-.332.05-.662.05-1S52.973 19.332 52.95 19z"></path><path d="M9.03,13.757,8.22,17H7a1,1,0,0,0-1,1v4a1,1,0,0,0,1,1H8.048l.41,8.184a1.028,1.028,0,0,0-.187.131A1,1,0,0,0,8,32.062l1,16a.994.994,0,0,0,.333.68L10,62.05A1,1,0,0,0,11,63H31a1,1,0,0,0,1-.95l.666-13.308a.994.994,0,0,0,.333-.68l.616-9.85A19,19,0,1,0,21.348,13H10A1,1,0,0,0,9.03,13.757ZM8,19H34v2H8Zm24.97-5.243A1,1,0,0,0,32,13H28.052A13.09,13.09,0,0,1,38,7.041V9h2V7.051A13,13,0,0,1,51.949,19H50v2h1.949A13,13,0,0,1,40,32.949V31H38v1.945a12.825,12.825,0,0,1-4.014-.968.991.991,0,0,0-.257-.662,1.028,1.028,0,0,0-.187-.131L33.952,23H35a1,1,0,0,0,1-1V18a1,1,0,0,0-1-1H33.78ZM31.061,47H10.939l-.875-14H31.936Zm.887-24-.4,8h-21.1l-.4-8Zm-20,38-.6-12h19.3l-.6,12ZM39,3a17,17,0,1,1-5.258,33.154l.129-2.064A15,15,0,1,0,39,5a15.079,15.079,0,0,0-13.259,8H23.506A17.034,17.034,0,0,1,39,3ZM31.219,15l.5,2H10.281l.5-2Z"></path><path d="M21 46c2.757 0 5-2.691 5-6s-2.243-6-5-6-5 2.691-5 6S18.243 46 21 46zm3-6a4.631 4.631 0 01-1.013 2.974 4.354 4.354 0 00-1.253-3.654l-.127-.127A2.063 2.063 0 0121 37.726a2.086 2.086 0 01.219-.928l.36-.72C22.957 36.439 24 38.058 24 40zm-4.908-3.061a4.094 4.094 0 00-.092.787 4.049 4.049 0 001.193 2.881l.127.127a2.4 2.4 0 01.3 3.029l-.113.171C19.088 43.618 18 41.981 18 40A4.586 4.586 0 0119.092 36.939zM38.293 20.707l4.5 4.5 1.414-1.414L40 19.586V11H38v9A1 1 0 0038.293 20.707z"></path></svg>