<svg xmlns="http://www.w3.org/2000/svg" xmlns:xlink="http://www.w3.org/1999/xlink" viewBox="0 0 64 64" id="coffee-break"><defs><linearGradient id="a" x1="32.5" x2="32.5" y1="62.307" y2="-3.055" gradientUnits="userSpaceOnUse"><stop offset="0" stop-color="#e93e3a"></stop><stop offset=".352" stop-color="#ed683c"></stop><stop offset=".706" stop-color="#f3903f"></stop><stop offset="1" stop-color="#fdc70c"></stop></linearGradient><linearGradient id="b" x1="25" x2="25" y1="62.307" y2="-3.055" xlink:href="#a"></linearGradient><linearGradient id="c" x1="15" x2="15" y1="62.307" y2="-3.055" xlink:href="#a"></linearGradient><linearGradient id="d" x1="35" x2="35" y1="62.307" y2="-3.055" xlink:href="#a"></linearGradient></defs><path fill="url(#a)" d="M51,22a7.976,7.976,0,0,0-6,2.726V20a2,2,0,0,0-2-2H9a2,2,0,0,0-2,2V45a17.012,17.012,0,0,0,9.017,15H6v2H48V60H35.983A17.012,17.012,0,0,0,45,45V35.274A8,8,0,1,0,51,22ZM43,45A15.017,15.017,0,0,1,28,60H24A15.017,15.017,0,0,1,9,45V20H43Zm8-9a6,6,0,1,1,6-6A6.006,6.006,0,0,1,51,36Z"></path><path fill="url(#b)" d="M23.28,14h2a2.036,2.036,0,0,1,.531-1.413A3.965,3.965,0,0,0,26.72,10a3.977,3.977,0,0,0-.908-2.585A2.064,2.064,0,0,1,25.28,6a2.064,2.064,0,0,1,.532-1.417A3.974,3.974,0,0,0,26.72,2h-2a2.064,2.064,0,0,1-.532,1.417A3.974,3.974,0,0,0,23.28,6a3.974,3.974,0,0,0,.908,2.585A2.067,2.067,0,0,1,24.72,10a2.036,2.036,0,0,1-.531,1.413A3.965,3.965,0,0,0,23.28,14Z"></path><path fill="url(#c)" d="M13.28,14h2a2.036,2.036,0,0,1,.531-1.413A3.965,3.965,0,0,0,16.72,10a3.977,3.977,0,0,0-.908-2.585A2.064,2.064,0,0,1,15.28,6a2.064,2.064,0,0,1,.532-1.417A3.974,3.974,0,0,0,16.72,2h-2a2.064,2.064,0,0,1-.532,1.417A3.974,3.974,0,0,0,13.28,6a3.974,3.974,0,0,0,.908,2.585A2.067,2.067,0,0,1,14.72,10a2.036,2.036,0,0,1-.531,1.413A3.965,3.965,0,0,0,13.28,14Z"></path><path fill="url(#d)" d="M33.28,14h2a2.036,2.036,0,0,1,.531-1.413A3.965,3.965,0,0,0,36.72,10a3.977,3.977,0,0,0-.908-2.585A2.064,2.064,0,0,1,35.28,6a2.064,2.064,0,0,1,.532-1.417A3.974,3.974,0,0,0,36.72,2h-2a2.064,2.064,0,0,1-.532,1.417A3.974,3.974,0,0,0,33.28,6a3.974,3.974,0,0,0,.908,2.585A2.067,2.067,0,0,1,34.72,10a2.036,2.036,0,0,1-.531,1.413A3.965,3.965,0,0,0,33.28,14Z"></path></svg>