<svg xmlns="http://www.w3.org/2000/svg" enable-background="new 0 0 70 70" viewBox="0 0 70 70" id="breakfast"><path d="M52.865,4.91c0-0.48-0.38-0.86-0.86-0.86h-13.47c-0.47,0-0.86,0.38-0.86,0.86v2.52h15.19V4.91z"></path><polygon points="37.675 8.94 24.304 22.527 51.056 22.527"></polygon><path d="M32.345 44.95c-.06-.18-.09-.36-.09-.54 0-1.65 2.43-3 5.43-3 2.98 0 5.41 1.35 5.41 3 0 .62-.34 1.2-.92 1.67 1.06.88 1.74 2.22 1.74 3.71v2.42h6.96V36.62h-19.94c.51 1.04.79 2.21.79 3.45 0 1.84-.64 3.53-1.7 4.88H32.345zM23.735 32.17h.1c2.48 0 4.7 1.15 6.15 2.95h21.63c0 0 0 0 .01 0V24.03h-27.89V32.17zM43.915 60.33h1.5c1.02 0 1.84.82 1.84 1.84v.88c0 1.11-.41 2.12-1.09 2.9h3.67c.98-.02 1.79-.84 1.79-1.83V53.71h-7.71V60.33z"></path><rect width="13.69" height="11.09" x="53.125" y="24.03"></rect><rect width="13.689" height="15.592" x="52.375" y="36.618"></rect><path d="M53.125,64.12c0,0.68-0.2,1.31-0.55,1.83h12.41c1.01,0,1.83-0.83,1.83-1.83V53.71h-13.69V64.12z"></path><polygon points="39.675 8.93 53.065 22.53 66.255 22.53 52.865 8.93"></polygon><path d="M45.417 61.829H3.527c-.189 0-.342.153-.342.342v.877c0 1.601 1.298 2.898 2.898 2.898H42.86c1.601 0 2.898-1.298 2.898-2.898v-.877C45.758 61.982 45.605 61.829 45.417 61.829zM12.785 52.74v2.72c0 .57.47 1.04 1.04 1.04s1.04-.47 1.04-1.04v-1.7c0-.42.34-.75.75-.75s.75.33.75.75c0 .56.46 1.03 1.03 1.03.57 0 1.04-.47 1.04-1.03v-1.02c0-.42.34-.75.75-.75h23.23v-2.2c0-1.85-1.49-3.34-3.33-3.34H23.96c3.463-.067 6.267-2.896 6.267-6.385 0-3.531-2.871-6.391-6.391-6.391-.507 0-.997.065-1.47.176-.238-.316-.503-.613-.826-.859-.928-.711-2.082-1.019-3.245-.864-.41.055-.699.432-.645.842.055.411.438.698.842.645.767-.104 1.525.1 2.136.568.088.067.161.148.24.224-2.039 1.068-3.434 3.199-3.434 5.659 0 3.489 2.804 6.318 6.277 6.385H9.865c-1.84 0-3.33 1.49-3.33 3.34v2.2h5.5C12.445 51.99 12.785 52.32 12.785 52.74z"></path><path d="M42.415,53.49h-22.48v0.27c0,1.39-1.14,2.53-2.54,2.53c-0.39,0-0.76-0.09-1.1-0.25c-0.26,1.12-1.27,1.96-2.47,1.96
		c-1.4,0-2.54-1.14-2.54-2.54v-1.97h-4.75v6.84h35.88V53.49z" fill="#3f5644"></path></svg>