<svg xmlns="http://www.w3.org/2000/svg" width="512pt" height="512pt" viewBox="0 0 512 512" id="dart"><path d="m511.972656 86.402344-75.15625-11.246094-11.25-75.15625-63.730468 63.730469c-36.417969-21.351563-78-32.742188-121.332032-32.742188-64.238281 0-124.632812 25.019531-170.058594 70.445313-45.425781 45.421875-70.445312 105.820312-70.445312 170.058594 0 64.238281 25.015625 124.636718 70.445312 170.0625 45.425782 45.425781 105.820313 70.445312 170.058594 70.445312 64.242188 0 124.640625-25.019531 170.066406-70.445312 45.425782-45.425782 70.441407-105.824219 70.441407-170.0625 0-43.34375-11.410157-84.929688-32.773438-121.355469zm-101.621094 15.21875 38.136719 5.707031-45.414062 45.414063-36.917969-6.59375-6.886719-37.292969 45.371094-45.371094zm-123.15625 169.871094c0 25.75-20.945312 46.695312-46.695312 46.695312-25.746094 0-46.691406-20.945312-46.691406-46.695312 0-25.746094 20.945312-46.691407 46.691406-46.691407 7.394531 0 14.386719 1.734375 20.605469 4.804688l-31.238281 31.25 21.28125 21.277343 31.238281-31.25c3.074219 6.222657 4.808593 13.214844 4.808593 20.609376zm-4.117187-63.859376c-12.195313-8.15625-26.839844-12.921874-42.578125-12.921874-42.339844 0-76.785156 34.445312-76.785156 76.785156s34.445312 76.785156 76.785156 76.785156 76.789062-34.445312 76.789062-76.785156c0-15.746094-4.769531-30.390625-12.929687-42.589844l38.632813-38.644531c17.738281 22.332031 28.347656 50.566406 28.347656 81.230469 0 72.148437-58.695313 130.84375-130.839844 130.84375-72.140625 0-130.835938-58.695313-130.835938-130.84375 0-72.140626 58.695313-130.835938 130.835938-130.835938 30.660156 0 58.886719 10.605469 81.214844 28.328125zm167.839844 63.859376c0 116.023437-94.390625 210.414062-210.414063 210.414062-116.023437 0-210.410156-94.390625-210.410156-210.414062 0-116.019532 94.386719-210.410157 210.410156-210.410157 35.816406 0 69.570313 9.007813 99.125 24.859375l-12.824218 12.820313 7.804687 42.269531c-26.484375-19.160156-58.996094-30.46875-94.109375-30.46875-88.734375 0-160.929688 72.195312-160.929688 160.929688 0 88.738281 72.195313 160.933593 160.929688 160.933593 88.738281 0 160.933594-72.195312 160.933594-160.933593 0-35.011719-11.246094-67.445313-30.308594-93.890626l42.125 7.523438 12.789062-12.789062c15.863282 29.5625 24.878907 63.324218 24.878907 99.15625zm0 0"></path></svg>