<svg xmlns="http://www.w3.org/2000/svg" width="512" height="512" viewBox="0 0 512 512" id="forward"><path d="M52.573,31.181l-20,-14c-0.305,-0.213 -0.704,-0.239 -1.035,-0.068c-0.33,0.172 -0.538,0.514 -0.538,0.887v12.08l-18.427,-12.899c-0.305,-0.213 -0.704,-0.239 -1.035,-0.068c-0.33,0.172 -0.538,0.514 -0.538,0.887v28c0,0.373 0.208,0.715 0.538,0.887c0.146,0.076 0.304,0.113 0.462,0.113c0.202,0 0.402,-0.061 0.573,-0.181l18.427,-12.898v12.079c0,0.373 0.208,0.715 0.538,0.887c0.146,0.076 0.304,0.113 0.462,0.113c0.202,0 0.402,-0.061 0.573,-0.181l20,-14c0.268,-0.187 0.427,-0.493 0.427,-0.819c0,-0.326 -0.159,-0.632 -0.427,-0.819Zm-39.573,12.898v-24.159l17.256,12.08l-17.256,12.079Zm20,0v-24.159l17.256,12.08l-17.256,12.079Z" transform="scale(8)"></path></svg>