<svg xmlns="http://www.w3.org/2000/svg" width="100" height="100" viewBox="0 0 26.458 26.458" id="joystick"><path style="line-height:normal;font-variant-ligatures:normal;font-variant-position:normal;font-variant-caps:normal;font-variant-numeric:normal;font-variant-alternates:normal;font-feature-settings:normal;text-indent:0;text-align:start;text-decoration-line:none;text-decoration-style:solid;text-decoration-color:#000;text-transform:none;text-orientation:mixed;shape-padding:0;isolation:auto;mix-blend-mode:normal" d="m 12.641273,275.89688 v 0.79563 2.18671 h -0.478719 v 0.79606 H 8.500483 v -0.79606 H 6.6690129 v 0.79606 H 6.5572035 6.5445054 c -2.2792532,-4e-5 -4.1354265,1.85613 -4.1353924,4.13539 v 5.6e-4 5.6e-4 c 0.00137,0.31954 0.042141,0.63389 0.1179259,0.93877 0,4e-5 -1.437e-4,0.003 -1.437e-4,0.003 0,0 0.00137,0.001 0.00137,0.001 0.1468364,0.58769 0.4247962,1.13927 0.8087375,1.61922 l 0.5134153,2.40654 c -0.00411,0.0541 -0.00815,0.10786 -0.00815,0.16261 1.642e-4,1.48774 1.214563,2.70207 2.70231,2.70187 1.4874816,-1.8e-4 2.7022918,-1.21438 2.7024551,-2.70187 0,-0.0148 -0.00198,-0.0437 -0.0028,-0.065 l 0.4909552,-2.48043 c 0.089926,-0.11099 0.1735716,-0.22605 0.2518959,-0.34432 h 6.4858048 c 0.07279,0.10983 0.150102,0.21714 0.232944,0.3207 l 0.513553,2.40771 c -0.0035,0.0538 -0.0084,0.10703 -0.0084,0.16128 1.71e-4,1.48774 1.215151,2.70208 2.702892,2.70188 1.487509,-1.8e-4 2.701709,-1.2144 2.701874,-2.70188 v -0.001 -10e-4 c -8.9e-5,-0.0132 -0.002,-0.0421 -0.0028,-0.0622 l 0.490813,-2.48045 c 0.59522,-0.73398 0.944347,-1.63909 0.94547,-2.5873 3.3e-5,-2.27924 -1.85852,-4.13541 -4.157399,-4.13538 h -0.02203 v -0.79605 h -1.83089 v 0.79605 h -4.045595 v -0.79605 h -0.555823 v -2.18673 h 2.264415 v -0.79523 z m -0.478719,5.52488 H 13.9933 v 0.79563 h -1.830746 z m 7.707231,0.82012 a 0.43664149,0.43664149 0 0 1 0.436734,0.43673 0.43664149,0.43664149 0 0 1 -0.436734,0.43659 0.43664149,0.43664149 0 0 1 -0.436584,-0.43659 0.43664149,0.43664149 0 0 1 0.436584,-0.43673 z m -13.5984358,2.8e-4 h 0.7954724 v 1.29532 h 1.2953278 v 0.79548 H 7.0668216 v 1.29532 H 6.2713492 v -1.29532 H 4.9760264 v -0.79548 h 1.2953228 z m 12.3420318,1.25625 a 0.43664149,0.43664149 0 0 1 0.436584,0.43659 0.43664149,0.43664149 0 0 1 -0.436584,0.43673 0.43664149,0.43664149 0 0 1 -0.436734,-0.43673 0.43664149,0.43664149 0 0 1 0.436734,-0.43659 z m 2.512952,0 a 0.43664149,0.43664149 0 0 1 0.436732,0.43659 0.43664149,0.43664149 0 0 1 -0.436732,0.43673 0.43664149,0.43664149 0 0 1 -0.436585,-0.43673 0.43664149,0.43664149 0 0 1 0.436585,-0.43659 z m -1.256548,1.25656 a 0.43664149,0.43664149 0 0 1 0.436734,0.43658 0.43664149,0.43664149 0 0 1 -0.436734,0.43673 0.43664149,0.43664149 0 0 1 -0.436584,-0.43673 0.43664149,0.43664149 0 0 1 0.436584,-0.43658 z" color="#000" font-family="sans-serif" font-weight="400" overflow="visible" transform="translate(0 -270.542)"></path></svg>