<svg xmlns="http://www.w3.org/2000/svg" viewBox="0 0 64 64" id="music"><g data-name="Head phone"><path fill="#5aaae7" d="M10.021,27.025a22,22,0,0,1,43.958,0,1,1,0,0,0,1,.975H57A25,25,0,0,0,7,28H9.025A1,1,0,0,0,10.021,27.025Z"></path><path fill="#ffb655" d="M5,57H9V41H5a2,2,0,0,0-2,2V55A2,2,0,0,0,5,57Z"></path><path fill="#ff7956" d="M9,57v1a2,2,0,0,0,2,2h6a2,2,0,0,0,2-2V40a2,2,0,0,0-2-2H11a2,2,0,0,0-2,2V57Z"></path><path fill="#57565c" d="M9,40V36a1,1,0,0,0-1-1H6a1,1,0,0,0-1,1v5H9Z"></path><path fill="#ffb655" d="M55,57h4a2,2,0,0,0,2-2V43a2,2,0,0,0-2-2H55Z"></path><path fill="#ff7956" d="M55,40a2,2,0,0,0-2-2H47a2,2,0,0,0-2,2V58a2,2,0,0,0,2,2h6a2,2,0,0,0,2-2V40Z"></path><path fill="#57565c" d="M55,36v5h4V36a1,1,0,0,0-1-1H56A1,1,0,0,0,55,36Z"></path><path fill="#ff7956" d="M58,35H56V28A24,24,0,0,0,8,28v7H6V28a26,26,0,0,1,52,0Z"></path></g></svg>