<svg xmlns="http://www.w3.org/2000/svg" viewBox="0 0 512 512" id="redo"><path d="M494.103 6H447.1c-6.57-.007-11.903 5.316-11.91 11.891 0 .193.004.386.013.579l3.966 82.103c-46.668-55.029-115.173-86.716-187.298-86.637C116.384 13.937 5.901 124.581 6 260.157 6.099 395.95 116.146 506 251.871 506a244.888 244.888 0 0 0 164.753-63.403c4.896-4.385 5.313-11.911.931-16.81a12.17 12.17 0 0 0-.455-.482l-33.708-33.73a11.892 11.892 0 0 0-16.239-.546c-72.351 63.697-182.606 56.643-246.262-15.756S64.285 192.547 136.636 128.85s182.606-56.643 246.262 15.756a174.818 174.818 0 0 1 13.819 17.941l-100.658-4.831c-6.563-.312-12.137 4.758-12.449 11.326-.009.193-.014.386-.013.579v47.034c0 6.575 5.326 11.905 11.897 11.905h198.61c6.571 0 11.897-5.33 11.897-11.905V17.905C506 11.33 500.674 6 494.103 6z"></path></svg>