<svg xmlns="http://www.w3.org/2000/svg" enable-background="new 0 0 128 128" viewBox="0 0 128 128" id="rotate"><path fill="#373737" d="M47.6 17.8l1-.3.5-.1c.2 0 .3-.1.5-.1l2-.5c1.3-.3 2.7-.5 4-.7 5.3-.7 10.8-.6 16 .5 3.3.7 6.4 1.6 9.5 2.9l-4.3 5.8 26.2 1.1L94.1 1.7l-4.3 5.8c-5.2-2.2-10.6-3.7-16.1-4.4C66.9 2.2 60 2.5 53.4 3.9c-1.7.3-3.3.8-4.9 1.2L46 5.8C45.8 5.9 45.6 6 45.5 6l-.6.2-1.2.4c-3.1 1.2-6.2 2.7-9.1 4.4-2.9 1.7-5.6 3.7-8.2 5.8-2.5 2.2-4.9 4.5-7.1 7C15.1 29 11.7 34.8 9.3 40.9c-1.2 3.1-2.1 6.2-2.8 9.4l-.2 1.2-.1.6-.1.6c-.1.8-.2 1.6-.3 2.4l-.2 2.4c0 .4-.1.8-.1 1.2L5.4 60C5.2 66.5 6 73 7.9 79.2c1.9 6.2 4.8 12 8.5 17.1l4.2-2.9c-3.1-4.9-5.4-10.3-6.7-15.9-1.3-5.6-1.7-11.4-1.1-17l.1-1.1c0-.4.1-.7.1-1.1l.3-2.1c.1-.7.3-1.4.4-2.1l.1-.5.1-.5.3-1c.8-2.7 1.7-5.4 2.9-7.9 1.2-2.5 2.6-5 4.2-7.3.4-.6.8-1.2 1.2-1.7l.6-.8c.2-.3.4-.6.6-.8l1.3-1.6 1.4-1.5c1.9-2 4-3.8 6.2-5.4 2.2-1.6 4.5-3.1 7-4.3C42.4 19.6 45 18.6 47.6 17.8zM80.4 110.2l-1 .3-.5.1c-.2 0-.3.1-.5.1l-2 .5c-1.3.3-2.7.5-4 .7-5.3.7-10.8.6-16-.5-3.3-.7-6.4-1.6-9.5-2.9l4.3-5.8-26.2-1.1 8.8 24.7 4.3-5.8c5.2 2.2 10.6 3.7 16.1 4.4 6.8.9 13.7.6 20.3-.7 1.7-.3 3.3-.8 4.9-1.2l2.4-.8c.2-.1.4-.1.6-.2l.6-.2 1.2-.4c3.1-1.2 6.2-2.7 9.1-4.4 2.9-1.7 5.6-3.7 8.2-5.8 2.5-2.2 4.9-4.5 7.1-7 4.3-5.1 7.7-10.8 10.1-16.9 1.2-3.1 2.1-6.2 2.8-9.4l.2-1.2.1-.6.1-.6c.1-.8.2-1.6.3-2.4l.2-2.4c0-.4.1-.8.1-1.2l.1-1.2c.2-6.5-.6-13-2.5-19.2-1.9-6.2-4.8-12-8.5-17.1l-4.2 2.9c3.1 4.9 5.4 10.3 6.7 15.9 1.3 5.6 1.7 11.4 1.1 17l-.1 1.1c0 .4-.1.7-.1 1.1l-.3 2.1c-.1.7-.3 1.4-.4 2.1l-.1.5-.1.5-.3 1c-.8 2.7-1.7 5.4-2.9 7.9-1.2 2.5-2.6 5-4.2 7.3-.4.6-.8 1.2-1.2 1.7l-.6.8c-.2.3-.4.6-.6.8l-1.3 1.6-1.4 1.5c-1.9 2-4 3.8-6.2 5.4-2.2 1.6-4.5 3.1-7 4.3C85.6 108.4 83 109.4 80.4 110.2z"></path></svg>